<?xml version="1.0" encoding="utf-8"?>
<!-- Generator: Adobe Illustrator 23.0.3, SVG Export Plug-In . SVG Version: 6.00 Build 0)  -->
<svg version="1.1" id="Layer_1" xmlns="http://www.w3.org/2000/svg" xmlns:xlink="http://www.w3.org/1999/xlink" x="0px" y="0px"
	 viewBox="0 0 144 144" style="enable-background:new 0 0 144 144;" xml:space="preserve">
<style type="text/css">
	.st0{fill:#FF6188;}
</style>
<path class="st0" d="M104,49.4c-1.5-7.1-6.7-12.9-13.7-15.2c-6.2-1.9-13-0.9-18.4,2.8c-5.3-3.7-12.1-4.7-18.3-2.8
	c-7,2.3-12.2,8.1-13.7,15.2c-1.6,7.5,1.2,15.2,7.7,21.1l17,17l-15.6,15.6l5.3,1.6l1.9,5.9L72,95l15.6,15.6l2-5.9l5.3-1.6L79.3,87.6
	l17-17C102.8,64.7,105.6,57,104,49.4z M89,62.8l-0.1,0.1L72,79.7L55.2,62.9l-0.2-0.2c-4.5-4-6.8-10.3-2.2-15.4
	c1.7-1.9,4.1-3,6.6-3.2h0.5c3.2,0.2,6.2,1.5,8.5,3.7L72,51l3.6-3.2c3.7-3.4,7.8-4.5,11.5-3.3c3.3,1.1,5.7,3.8,6.5,7.2
	C94.3,55.4,92.7,59.4,89,62.8L89,62.8z"/>
</svg>
